<svg xmlns="http://www.w3.org/2000/svg" xmlns:xlink="http://www.w3.org/1999/xlink" width="500" zoomAndPan="magnify" viewBox="0 0 375 374.999991" height="500" preserveAspectRatio="xMidYMid meet" version="1.0"><defs><clipPath id="9ca3e5b5ff"><path d="M 96.84375 75 L 188.25 75 L 188.25 187.828125 L 96.84375 187.828125 Z M 96.84375 75 " clip-rule="nonzero"/></clipPath><clipPath id="c0657b065b"><path d="M 127.328125 77.640625 C 132 76.046875 137.34375 75 142.570312 75 C 147.800781 75 152.832031 75.894531 157.46875 77.488281 C 157.566406 77.539062 157.667969 77.539062 157.765625 77.589844 C 175.179688 83.964844 188.003906 100.796875 188.25 120.46875 L 188.25 153.984375 C 188.25 162.871094 184.71875 171.398438 178.433594 177.683594 C 172.148438 183.96875 163.621094 187.5 154.734375 187.5 L 130.335938 187.5 C 111.839844 187.5 96.84375 172.503906 96.84375 154.007812 L 96.84375 120.519531 C 97.089844 100.699219 109.71875 83.863281 127.328125 77.640625 Z M 127.328125 77.640625 " clip-rule="nonzero"/></clipPath><clipPath id="2501484022"><path d="M 96.84375 75 L 188.25 75 L 188.25 187.5 L 96.84375 187.5 Z M 96.84375 75 " clip-rule="nonzero"/></clipPath><clipPath id="a7430838bb"><path d="M 127.328125 77.640625 C 132 76.046875 137.34375 75 142.570312 75 C 147.800781 75 152.832031 75.894531 157.46875 77.488281 C 157.566406 77.539062 157.667969 77.539062 157.765625 77.589844 C 175.179688 83.964844 188.003906 100.796875 188.25 120.46875 L 188.25 153.984375 C 188.25 162.871094 184.71875 171.398438 178.433594 177.683594 C 172.148438 183.96875 163.621094 187.5 154.734375 187.5 L 130.335938 187.5 C 111.839844 187.5 96.84375 172.503906 96.84375 154.007812 L 96.84375 120.519531 C 97.089844 100.699219 109.71875 83.863281 127.328125 77.640625 Z M 127.328125 77.640625 " clip-rule="nonzero"/></clipPath><clipPath id="2e237ce60e"><path d="M 186.75 75 L 278.15625 75 L 278.15625 187.828125 L 186.75 187.828125 Z M 186.75 75 " clip-rule="nonzero"/></clipPath><clipPath id="5322353e5e"><path d="M 217.234375 77.640625 C 221.90625 76.046875 227.25 75 232.476562 75 C 237.707031 75 242.738281 75.894531 247.375 77.488281 C 247.472656 77.539062 247.574219 77.539062 247.671875 77.589844 C 265.085938 83.964844 277.910156 100.796875 278.15625 120.46875 L 278.15625 153.984375 C 278.15625 162.871094 274.625 171.398438 268.339844 177.683594 C 262.054688 183.96875 253.527344 187.5 244.640625 187.5 L 220.242188 187.5 C 201.746094 187.5 186.75 172.503906 186.75 154.007812 L 186.75 120.519531 C 186.996094 100.699219 199.625 83.863281 217.234375 77.640625 Z M 217.234375 77.640625 " clip-rule="nonzero"/></clipPath><clipPath id="bf25357448"><path d="M 186.75 75 L 278.15625 75 L 278.15625 187.5 L 186.75 187.5 Z M 186.75 75 " clip-rule="nonzero"/></clipPath><clipPath id="7b04b3262a"><path d="M 217.234375 77.640625 C 221.90625 76.046875 227.25 75 232.476562 75 C 237.707031 75 242.738281 75.894531 247.375 77.488281 C 247.472656 77.539062 247.574219 77.539062 247.671875 77.589844 C 265.085938 83.964844 277.910156 100.796875 278.15625 120.46875 L 278.15625 153.984375 C 278.15625 162.871094 274.625 171.398438 268.339844 177.683594 C 262.054688 183.96875 253.527344 187.5 244.640625 187.5 L 220.242188 187.5 C 201.746094 187.5 186.75 172.503906 186.75 154.007812 L 186.75 120.519531 C 186.996094 100.699219 199.625 83.863281 217.234375 77.640625 Z M 217.234375 77.640625 " clip-rule="nonzero"/></clipPath><clipPath id="74a6f694a4"><path d="M 186.75 187 L 278.15625 187 L 278.15625 299.625 L 186.75 299.625 Z M 186.75 187 " clip-rule="nonzero"/></clipPath><clipPath id="2517640907"><path d="M 247.671875 296.984375 C 243 298.578125 237.65625 299.625 232.429688 299.625 C 227.199219 299.625 222.167969 298.730469 217.53125 297.136719 C 217.433594 297.085938 217.332031 297.085938 217.234375 297.035156 C 199.820312 290.660156 186.996094 273.828125 186.75 254.15625 L 186.75 220.640625 C 186.75 211.753906 190.28125 203.226562 196.566406 196.941406 C 202.851562 190.65625 211.375 187.125 220.265625 187.125 L 244.664062 187.125 C 263.160156 187.125 278.15625 202.121094 278.15625 220.617188 L 278.15625 254.105469 C 277.910156 273.925781 265.28125 290.761719 247.671875 296.984375 Z M 247.671875 296.984375 " clip-rule="nonzero"/></clipPath><clipPath id="64b47707d2"><path d="M 186.75 187.125 L 278.15625 187.125 L 278.15625 299.625 L 186.75 299.625 Z M 186.75 187.125 " clip-rule="nonzero"/></clipPath><clipPath id="eeff75c33c"><path d="M 247.671875 296.984375 C 243 298.578125 237.65625 299.625 232.429688 299.625 C 227.199219 299.625 222.167969 298.730469 217.53125 297.136719 C 217.433594 297.085938 217.332031 297.085938 217.234375 297.035156 C 199.820312 290.660156 186.996094 273.828125 186.75 254.15625 L 186.75 220.640625 C 186.75 211.75 190.28125 203.226562 196.566406 196.941406 C 202.851562 190.65625 211.375 187.125 220.265625 187.125 L 244.664062 187.125 C 263.160156 187.125 278.15625 202.121094 278.15625 220.617188 L 278.15625 254.105469 C 277.910156 273.925781 265.28125 290.761719 247.671875 296.984375 Z M 247.671875 296.984375 " clip-rule="nonzero"/></clipPath><clipPath id="36790c8b86"><path d="M 96.84375 187 L 188.25 187 L 188.25 299.625 L 96.84375 299.625 Z M 96.84375 187 " clip-rule="nonzero"/></clipPath><clipPath id="ccec5dfaf4"><path d="M 157.765625 296.984375 C 153.09375 298.578125 147.75 299.625 142.523438 299.625 C 137.292969 299.625 132.261719 298.730469 127.625 297.136719 C 127.527344 297.085938 127.425781 297.085938 127.328125 297.035156 C 109.914062 290.660156 97.089844 273.828125 96.84375 254.15625 L 96.84375 220.640625 C 96.84375 211.753906 100.375 203.226562 106.660156 196.941406 C 112.945312 190.65625 121.472656 187.125 130.359375 187.125 L 154.757812 187.125 C 173.253906 187.125 188.25 202.121094 188.25 220.617188 L 188.25 254.105469 C 188.003906 273.925781 175.375 290.761719 157.765625 296.984375 Z M 157.765625 296.984375 " clip-rule="nonzero"/></clipPath><clipPath id="62a904f307"><path d="M 96.84375 187.125 L 188.25 187.125 L 188.25 299.625 L 96.84375 299.625 Z M 96.84375 187.125 " clip-rule="nonzero"/></clipPath><clipPath id="0e63b3f4d5"><path d="M 157.765625 296.984375 C 153.09375 298.578125 147.75 299.625 142.523438 299.625 C 137.292969 299.625 132.261719 298.730469 127.625 297.136719 C 127.527344 297.085938 127.425781 297.085938 127.328125 297.035156 C 109.914062 290.660156 97.089844 273.828125 96.84375 254.15625 L 96.84375 220.640625 C 96.84375 211.75 100.375 203.226562 106.660156 196.941406 C 112.945312 190.65625 121.472656 187.125 130.359375 187.125 L 154.757812 187.125 C 173.253906 187.125 188.25 202.121094 188.25 220.617188 L 188.25 254.105469 C 188.003906 273.925781 175.375 290.761719 157.765625 296.984375 Z M 157.765625 296.984375 " clip-rule="nonzero"/></clipPath></defs><rect x="-37.5" width="450" fill="#ffffff" y="-37.499999" height="449.999989" fill-opacity="1"/><rect x="-37.5" width="450" fill="#f8f7f2" y="-37.499999" height="449.999989" fill-opacity="1"/><g clip-path="url(#9ca3e5b5ff)"><g clip-path="url(#c0657b065b)"><path fill="#ffffff" d="M 96.84375 75 L 188.25 75 L 188.25 187.472656 L 96.84375 187.472656 Z M 96.84375 75 " fill-opacity="1" fill-rule="nonzero"/></g></g><g clip-path="url(#2501484022)"><g clip-path="url(#a7430838bb)"><path stroke-linecap="butt" transform="matrix(0.75, 0, 0, 0.75, 96.843749, 74.999995)" fill="none" stroke-linejoin="miter" d="M 40.645837 3.52084 C 46.875004 1.39584 54.000004 0.00000656667 60.968755 0.00000656667 C 67.942714 0.00000656667 74.651047 1.192715 80.83334 3.317715 C 80.963548 3.385423 81.098965 3.385423 81.229173 3.453132 C 104.447924 11.953132 121.546884 34.395842 121.875009 60.625011 L 121.875009 105.312513 C 121.875009 117.161473 117.166675 128.531265 108.786466 136.911474 C 100.406257 145.291683 89.036465 150.000016 77.187506 150.000016 L 44.656254 150.000016 C 19.994794 150.000016 0.000000879208 130.005223 0.000000879208 105.343763 L 0.000000879208 60.692719 C 0.328126 34.265634 17.166669 11.817716 40.645837 3.52084 Z M 40.645837 3.52084 " stroke="#000000" stroke-width="8" stroke-opacity="1" stroke-miterlimit="4"/></g></g><g clip-path="url(#2e237ce60e)"><g clip-path="url(#5322353e5e)"><path fill="#ffffff" d="M 186.75 75 L 278.15625 75 L 278.15625 187.472656 L 186.75 187.472656 Z M 186.75 75 " fill-opacity="1" fill-rule="nonzero"/></g></g><g clip-path="url(#bf25357448)"><g clip-path="url(#7b04b3262a)"><path stroke-linecap="butt" transform="matrix(0.75, 0, 0, 0.75, 186.749992, 74.999995)" fill="none" stroke-linejoin="miter" d="M 40.645846 3.52084 C 46.875013 1.39584 54.000014 0.00000656667 60.968764 0.00000656667 C 67.942723 0.00000656667 74.651057 1.192715 80.833349 3.317715 C 80.963557 3.385423 81.098974 3.385423 81.229182 3.453132 C 104.447934 11.953132 121.546893 34.395842 121.875018 60.625011 L 121.875018 105.312513 C 121.875018 117.161473 117.166685 128.531265 108.786476 136.911474 C 100.406267 145.291683 89.036475 150.000016 77.187515 150.000016 L 44.656263 150.000016 C 19.994803 150.000016 0.000010351 130.005223 0.000010351 105.343763 L 0.000010351 60.692719 C 0.328135 34.265634 17.166678 11.817716 40.645846 3.52084 Z M 40.645846 3.52084 " stroke="#000000" stroke-width="8" stroke-opacity="1" stroke-miterlimit="4"/></g></g><g clip-path="url(#74a6f694a4)"><g clip-path="url(#2517640907)"><path fill="#ffffff" d="M 278.15625 299.625 L 186.75 299.625 L 186.75 187.152344 L 278.15625 187.152344 Z M 278.15625 299.625 " fill-opacity="1" fill-rule="nonzero"/></g></g><g clip-path="url(#64b47707d2)"><g clip-path="url(#eeff75c33c)"><path stroke-linecap="butt" transform="matrix(-0.75, 0, 0, -0.75, 278.156237, 299.62498)" fill="none" stroke-linejoin="miter" d="M 40.645819 3.520807 C 46.874986 1.395807 53.999987 -0.0000262338 60.968737 -0.0000262338 C 67.942696 -0.0000262338 74.65103 1.192682 80.833322 3.317682 C 80.96353 3.385391 81.098947 3.385391 81.229155 3.453099 C 104.447907 11.9531 121.546866 34.395809 121.874991 60.624978 L 121.874991 105.312481 C 121.874991 117.166648 117.166658 128.531232 108.786449 136.911441 C 100.40624 145.29165 89.036447 149.999984 77.187488 149.999984 L 44.656236 149.999984 C 19.994776 149.999984 -0.0000167541 130.005191 -0.0000167541 105.343731 L -0.0000167541 60.692686 C 0.328108 34.265601 17.166651 11.817683 40.645819 3.520807 Z M 40.645819 3.520807 " stroke="#000000" stroke-width="8" stroke-opacity="1" stroke-miterlimit="4"/></g></g><g clip-path="url(#36790c8b86)"><g clip-path="url(#ccec5dfaf4)"><path fill="#ffffff" d="M 188.25 299.625 L 96.84375 299.625 L 96.84375 187.152344 L 188.25 187.152344 Z M 188.25 299.625 " fill-opacity="1" fill-rule="nonzero"/></g></g><g clip-path="url(#62a904f307)"><g clip-path="url(#0e63b3f4d5)"><path stroke-linecap="butt" transform="matrix(-0.75, 0, 0, -0.75, 188.249992, 299.62498)" fill="none" stroke-linejoin="miter" d="M 40.645826 3.520807 C 46.874993 1.395807 53.999993 -0.0000262338 60.968744 -0.0000262338 C 67.942702 -0.0000262338 74.651036 1.192682 80.833328 3.317682 C 80.963537 3.385391 81.098953 3.385391 81.229162 3.453099 C 104.447913 11.9531 121.546872 34.395809 121.874998 60.624978 L 121.874998 105.312481 C 121.874998 117.166648 117.166664 128.531232 108.786455 136.911441 C 100.406246 145.29165 89.036454 149.999984 77.187495 149.999984 L 44.656242 149.999984 C 19.994782 149.999984 -0.0000104823 130.005191 -0.0000104823 105.343731 L -0.0000104823 60.692686 C 0.328115 34.265601 17.166657 11.817683 40.645826 3.520807 Z M 40.645826 3.520807 " stroke="#000000" stroke-width="8" stroke-opacity="1" stroke-miterlimit="4"/></g></g></svg>