<?xml version="1.0" encoding="utf-8"?>
<!-- Generator: Adobe Illustrator 27.0.0, SVG Export Plug-In . SVG Version: 6.00 Build 0)  -->
<svg version="1.1" id="Layer_1" xmlns="http://www.w3.org/2000/svg" xmlns:xlink="http://www.w3.org/1999/xlink" x="0px" y="0px"
	 viewBox="0 0 31 26" style="enable-background:new 0 0 31 26;" xml:space="preserve">
<style type="text/css">
	.st0{fill:#FFFFFF;}
</style>
<path class="st0" d="M30.3,2.9c-0.5,0.2-1,0.4-1.5,0.5c0.6-0.7,1.1-1.5,1.3-2.4c0.1-0.2,0-0.4-0.2-0.5c-0.2-0.1-0.4-0.1-0.6,0
	c-1.1,0.6-2.3,1.1-3.5,1.4C24.7,0.7,23,0,21.3,0c-3.7,0-6.7,3-6.7,6.7c0,0.3,0,0.6,0.1,0.9C10.1,7.1,5.9,4.9,3,1.3
	C2.9,1.2,2.7,1.1,2.5,1.1c-0.2,0-0.3,0.1-0.4,0.2c-0.6,1-0.9,2.2-0.9,3.3c0,1.6,0.6,3.1,1.6,4.3C2.5,8.9,2.2,8.8,1.9,8.6
	c-0.2-0.1-0.3-0.1-0.5,0C1.3,8.7,1.2,8.9,1.2,9.1c0,0,0,0.1,0,0.1c0,2.4,1.3,4.5,3.3,5.7c-0.2,0-0.3,0-0.5-0.1c-0.2,0-0.4,0-0.5,0.2
	c-0.1,0.1-0.2,0.3-0.1,0.5c0.7,2.3,2.6,4,4.9,4.5c-1.9,1.2-4,1.8-6.3,1.8c-0.5,0-0.9,0-1.4-0.1c-0.2,0-0.5,0.1-0.5,0.3
	c-0.1,0.2,0,0.5,0.2,0.6c2.9,1.9,6.3,2.8,9.7,2.8c6.8,0,11-3.2,13.4-5.9c2.9-3.3,4.6-7.8,4.6-12.1c0-0.2,0-0.4,0-0.6
	c1.2-0.9,2.2-1.9,3-3.2c0.1-0.2,0.1-0.4,0-0.6C30.7,2.9,30.5,2.8,30.3,2.9z"/>
</svg>
